<mxfile host="app.diagrams.net" modified="2024-03-05T17:09:27.988Z" agent="Mozilla/5.0 (Windows NT 10.0; Win64; x64) AppleWebKit/537.36 (KHTML, like Gecko) Chrome/122.0.0.0 Safari/537.36" etag="AvwCei4j8s7K1g1OwcMY" version="24.0.1" type="github">
  <diagram id="C5RBs43oDa-KdzZeNtuy" name="Page-1">
    <mxGraphModel dx="954" dy="600" grid="1" gridSize="10" guides="1" tooltips="1" connect="1" arrows="1" fold="1" page="1" pageScale="1" pageWidth="827" pageHeight="1169" math="0" shadow="0">
      <root>
        <mxCell id="WIyWlLk6GJQsqaUBKTNV-0" />
        <mxCell id="WIyWlLk6GJQsqaUBKTNV-1" parent="WIyWlLk6GJQsqaUBKTNV-0" />
        <mxCell id="ihSQ56KvTefY_zQLN308-0" style="edgeStyle=orthogonalEdgeStyle;rounded=0;orthogonalLoop=1;jettySize=auto;html=1;exitX=0.5;exitY=1;exitDx=0;exitDy=0;exitPerimeter=0;entryX=0.5;entryY=0;entryDx=0;entryDy=0;" edge="1" parent="WIyWlLk6GJQsqaUBKTNV-1" source="ihSQ56KvTefY_zQLN308-1" target="ihSQ56KvTefY_zQLN308-4">
          <mxGeometry relative="1" as="geometry" />
        </mxCell>
        <mxCell id="ihSQ56KvTefY_zQLN308-1" value="Inicio" style="strokeWidth=2;html=1;shape=mxgraph.flowchart.start_1;whiteSpace=wrap;" vertex="1" parent="WIyWlLk6GJQsqaUBKTNV-1">
          <mxGeometry x="386" y="10" width="56" height="40" as="geometry" />
        </mxCell>
        <mxCell id="ihSQ56KvTefY_zQLN308-2" value="Fin" style="strokeWidth=2;html=1;shape=mxgraph.flowchart.start_1;whiteSpace=wrap;" vertex="1" parent="WIyWlLk6GJQsqaUBKTNV-1">
          <mxGeometry x="574" y="405" width="56" height="40" as="geometry" />
        </mxCell>
        <mxCell id="ihSQ56KvTefY_zQLN308-3" style="edgeStyle=orthogonalEdgeStyle;rounded=0;orthogonalLoop=1;jettySize=auto;html=1;exitX=0.5;exitY=1;exitDx=0;exitDy=0;entryX=0.5;entryY=0;entryDx=0;entryDy=0;" edge="1" parent="WIyWlLk6GJQsqaUBKTNV-1" source="ihSQ56KvTefY_zQLN308-4" target="ihSQ56KvTefY_zQLN308-5">
          <mxGeometry relative="1" as="geometry" />
        </mxCell>
        <mxCell id="ihSQ56KvTefY_zQLN308-4" value="cotizarSobre" style="rounded=1;whiteSpace=wrap;html=1;absoluteArcSize=1;arcSize=14;strokeWidth=2;" vertex="1" parent="WIyWlLk6GJQsqaUBKTNV-1">
          <mxGeometry x="364" y="70" width="100" height="30" as="geometry" />
        </mxCell>
        <mxCell id="ihSQ56KvTefY_zQLN308-5" value="Calculo de costos" style="rounded=1;whiteSpace=wrap;html=1;absoluteArcSize=1;arcSize=14;strokeWidth=2;" vertex="1" parent="WIyWlLk6GJQsqaUBKTNV-1">
          <mxGeometry x="354" y="120" width="120" height="30" as="geometry" />
        </mxCell>
        <mxCell id="ihSQ56KvTefY_zQLN308-6" style="edgeStyle=orthogonalEdgeStyle;rounded=0;orthogonalLoop=1;jettySize=auto;html=1;exitX=0.5;exitY=1;exitDx=0;exitDy=0;exitPerimeter=0;entryX=0.5;entryY=0;entryDx=0;entryDy=0;" edge="1" parent="WIyWlLk6GJQsqaUBKTNV-1" source="ihSQ56KvTefY_zQLN308-8" target="ihSQ56KvTefY_zQLN308-10">
          <mxGeometry relative="1" as="geometry" />
        </mxCell>
        <mxCell id="ihSQ56KvTefY_zQLN308-7" style="edgeStyle=orthogonalEdgeStyle;rounded=0;orthogonalLoop=1;jettySize=auto;html=1;exitX=1;exitY=0.5;exitDx=0;exitDy=0;exitPerimeter=0;entryX=0;entryY=0.5;entryDx=0;entryDy=0;" edge="1" parent="WIyWlLk6GJQsqaUBKTNV-1" source="ihSQ56KvTefY_zQLN308-8" target="ihSQ56KvTefY_zQLN308-12">
          <mxGeometry relative="1" as="geometry" />
        </mxCell>
        <mxCell id="ihSQ56KvTefY_zQLN308-8" value="¿Es frágil?" style="strokeWidth=2;html=1;shape=mxgraph.flowchart.decision;whiteSpace=wrap;" vertex="1" parent="WIyWlLk6GJQsqaUBKTNV-1">
          <mxGeometry x="364" y="170" width="100" height="50" as="geometry" />
        </mxCell>
        <mxCell id="ihSQ56KvTefY_zQLN308-9" style="edgeStyle=orthogonalEdgeStyle;rounded=0;orthogonalLoop=1;jettySize=auto;html=1;exitX=0.5;exitY=1;exitDx=0;exitDy=0;entryX=0.5;entryY=0;entryDx=0;entryDy=0;" edge="1" parent="WIyWlLk6GJQsqaUBKTNV-1" source="ihSQ56KvTefY_zQLN308-10" target="ihSQ56KvTefY_zQLN308-13">
          <mxGeometry relative="1" as="geometry" />
        </mxCell>
        <mxCell id="ihSQ56KvTefY_zQLN308-10" value="total = total + costo de fragilidad" style="rounded=1;whiteSpace=wrap;html=1;absoluteArcSize=1;arcSize=14;strokeWidth=2;" vertex="1" parent="WIyWlLk6GJQsqaUBKTNV-1">
          <mxGeometry x="354" y="240" width="120" height="40" as="geometry" />
        </mxCell>
        <mxCell id="ihSQ56KvTefY_zQLN308-11" style="edgeStyle=orthogonalEdgeStyle;rounded=0;orthogonalLoop=1;jettySize=auto;html=1;exitX=0.5;exitY=1;exitDx=0;exitDy=0;entryX=0.5;entryY=0;entryDx=0;entryDy=0;" edge="1" parent="WIyWlLk6GJQsqaUBKTNV-1" source="ihSQ56KvTefY_zQLN308-12" target="ihSQ56KvTefY_zQLN308-13">
          <mxGeometry relative="1" as="geometry">
            <Array as="points">
              <mxPoint x="670" y="290" />
              <mxPoint x="414" y="290" />
            </Array>
          </mxGeometry>
        </mxCell>
        <mxCell id="ihSQ56KvTefY_zQLN308-12" value="total = total" style="rounded=1;whiteSpace=wrap;html=1;absoluteArcSize=1;arcSize=14;strokeWidth=2;" vertex="1" parent="WIyWlLk6GJQsqaUBKTNV-1">
          <mxGeometry x="630" y="175" width="80" height="40" as="geometry" />
        </mxCell>
        <mxCell id="ihSQ56KvTefY_zQLN308-13" value="Detalle cotizacion" style="rounded=1;whiteSpace=wrap;html=1;absoluteArcSize=1;arcSize=14;strokeWidth=2;" vertex="1" parent="WIyWlLk6GJQsqaUBKTNV-1">
          <mxGeometry x="361" y="300" width="106" height="30" as="geometry" />
        </mxCell>
        <mxCell id="ihSQ56KvTefY_zQLN308-14" style="edgeStyle=orthogonalEdgeStyle;rounded=0;orthogonalLoop=1;jettySize=auto;html=1;exitX=0.5;exitY=1;exitDx=0;exitDy=0;entryX=0.5;entryY=0;entryDx=0;entryDy=0;entryPerimeter=0;" edge="1" parent="WIyWlLk6GJQsqaUBKTNV-1" source="ihSQ56KvTefY_zQLN308-5" target="ihSQ56KvTefY_zQLN308-8">
          <mxGeometry relative="1" as="geometry" />
        </mxCell>
        <mxCell id="ihSQ56KvTefY_zQLN308-15" value="&lt;div style=&quot;line-height: 120%;&quot;&gt;&lt;span style=&quot;background-color: initial;&quot;&gt;&quot;total&quot;: ,&lt;/span&gt;&lt;br&gt;&lt;/div&gt;&lt;div style=&quot;line-height: 120%;&quot;&gt;&amp;nbsp; &quot;detalle&quot;: {&lt;/div&gt;&lt;div style=&quot;line-height: 120%;&quot;&gt;&amp;nbsp; &amp;nbsp; &quot;total&quot;: ,&lt;/div&gt;&lt;div style=&quot;line-height: 120%;&quot;&gt;&amp;nbsp; &amp;nbsp; &quot;costoGuia&quot;: ,&lt;/div&gt;&lt;div style=&quot;line-height: 120%;&quot;&gt;&amp;nbsp; &amp;nbsp; &quot;fragil&quot;: ,&lt;span style=&quot;background-color: initial;&quot;&gt;&amp;nbsp; &amp;nbsp; &quot;cargoCombustible&quot;: ,&lt;/span&gt;&lt;span style=&quot;background-color: initial;&quot;&gt;&amp;nbsp;&lt;/span&gt;&lt;/div&gt;&lt;div style=&quot;line-height: 120%;&quot;&gt;&amp;nbsp; }&lt;/div&gt;" style="strokeWidth=2;html=1;shape=mxgraph.flowchart.document2;whiteSpace=wrap;size=0.25;" vertex="1" parent="WIyWlLk6GJQsqaUBKTNV-1">
          <mxGeometry x="338.5" y="350" width="151" height="150" as="geometry" />
        </mxCell>
        <mxCell id="ihSQ56KvTefY_zQLN308-16" style="edgeStyle=orthogonalEdgeStyle;rounded=0;orthogonalLoop=1;jettySize=auto;html=1;exitX=0.5;exitY=1;exitDx=0;exitDy=0;entryX=0.5;entryY=0;entryDx=0;entryDy=0;entryPerimeter=0;" edge="1" parent="WIyWlLk6GJQsqaUBKTNV-1" source="ihSQ56KvTefY_zQLN308-13" target="ihSQ56KvTefY_zQLN308-15">
          <mxGeometry relative="1" as="geometry" />
        </mxCell>
        <mxCell id="ihSQ56KvTefY_zQLN308-17" style="edgeStyle=orthogonalEdgeStyle;rounded=0;orthogonalLoop=1;jettySize=auto;html=1;exitX=1;exitY=0.5;exitDx=0;exitDy=0;exitPerimeter=0;entryX=0;entryY=0.5;entryDx=0;entryDy=0;entryPerimeter=0;" edge="1" parent="WIyWlLk6GJQsqaUBKTNV-1" source="ihSQ56KvTefY_zQLN308-15" target="ihSQ56KvTefY_zQLN308-2">
          <mxGeometry relative="1" as="geometry" />
        </mxCell>
      </root>
    </mxGraphModel>
  </diagram>
</mxfile>
